<mxfile host="app.diagrams.net" agent="Mozilla/5.0 (Windows NT 10.0; Win64; x64) AppleWebKit/537.36 (KHTML, like Gecko) Chrome/130.0.0.0 Safari/537.36 OPR/115.0.0.0" version="25.0.3">
  <diagram name="Page-1" id="IwtDqr98a0lUKMgxbGqB">
    <mxGraphModel dx="1128" dy="623" grid="1" gridSize="10" guides="1" tooltips="1" connect="1" arrows="1" fold="1" page="1" pageScale="1" pageWidth="827" pageHeight="1169" math="0" shadow="0">
      <root>
        <mxCell id="0" />
        <mxCell id="1" parent="0" />
        <mxCell id="pzUCy6e7cFwTvhzZ8XjX-1" value="&lt;font style=&quot;font-size: 10px;&quot; face=&quot;Verdana&quot;&gt;START&lt;/font&gt;" style="rounded=1;whiteSpace=wrap;html=1;" vertex="1" parent="1">
          <mxGeometry x="360" y="20" width="120" height="60" as="geometry" />
        </mxCell>
        <mxCell id="pzUCy6e7cFwTvhzZ8XjX-13" style="edgeStyle=orthogonalEdgeStyle;rounded=0;orthogonalLoop=1;jettySize=auto;html=1;entryX=0.5;entryY=0;entryDx=0;entryDy=0;" edge="1" parent="1" source="pzUCy6e7cFwTvhzZ8XjX-2" target="pzUCy6e7cFwTvhzZ8XjX-12">
          <mxGeometry relative="1" as="geometry" />
        </mxCell>
        <mxCell id="pzUCy6e7cFwTvhzZ8XjX-2" value="&lt;font style=&quot;font-size: 10px;&quot; face=&quot;Verdana&quot;&gt;Input &lt;font color=&quot;#dc6bff&quot;&gt;&lt;span style=&quot;&quot; class=&quot;hljs-number&quot;&gt;10&lt;/span&gt; &lt;/font&gt;country names&lt;/font&gt;" style="shape=parallelogram;perimeter=parallelogramPerimeter;whiteSpace=wrap;html=1;fixedSize=1;" vertex="1" parent="1">
          <mxGeometry x="320" y="120" width="200" height="80" as="geometry" />
        </mxCell>
        <mxCell id="pzUCy6e7cFwTvhzZ8XjX-6" style="edgeStyle=orthogonalEdgeStyle;rounded=0;orthogonalLoop=1;jettySize=auto;html=1;entryX=0.5;entryY=-0.027;entryDx=0;entryDy=0;entryPerimeter=0;" edge="1" parent="1" source="pzUCy6e7cFwTvhzZ8XjX-1" target="pzUCy6e7cFwTvhzZ8XjX-2">
          <mxGeometry relative="1" as="geometry" />
        </mxCell>
        <mxCell id="pzUCy6e7cFwTvhzZ8XjX-16" style="edgeStyle=orthogonalEdgeStyle;rounded=0;orthogonalLoop=1;jettySize=auto;html=1;entryX=0.5;entryY=0;entryDx=0;entryDy=0;" edge="1" parent="1" source="pzUCy6e7cFwTvhzZ8XjX-12" target="pzUCy6e7cFwTvhzZ8XjX-15">
          <mxGeometry relative="1" as="geometry" />
        </mxCell>
        <mxCell id="pzUCy6e7cFwTvhzZ8XjX-12" value="&lt;font style=&quot;font-size: 10px;&quot; face=&quot;Verdana&quot;&gt;Initialize largest &lt;font color=&quot;#3399ff&quot;&gt;&lt;span style=&quot;&quot; class=&quot;hljs-keyword&quot;&gt;and&lt;/span&gt; &lt;/font&gt;smallest&lt;/font&gt;" style="rounded=0;whiteSpace=wrap;html=1;" vertex="1" parent="1">
          <mxGeometry x="320" y="240" width="200" height="80" as="geometry" />
        </mxCell>
        <mxCell id="pzUCy6e7cFwTvhzZ8XjX-18" style="edgeStyle=orthogonalEdgeStyle;rounded=0;orthogonalLoop=1;jettySize=auto;html=1;entryX=0.5;entryY=0;entryDx=0;entryDy=0;" edge="1" parent="1" source="pzUCy6e7cFwTvhzZ8XjX-15" target="pzUCy6e7cFwTvhzZ8XjX-17">
          <mxGeometry relative="1" as="geometry" />
        </mxCell>
        <mxCell id="pzUCy6e7cFwTvhzZ8XjX-15" value="&lt;font face=&quot;Verdana&quot; style=&quot;font-size: 10px;&quot;&gt;Loop through country names &lt;span style=&quot;&quot; class=&quot;hljs-keyword&quot;&gt;&lt;font color=&quot;#3399ff&quot;&gt;and&lt;/font&gt;&lt;br&gt;&lt;/span&gt;&amp;nbsp;&lt;font color=&quot;#3399ff&quot;&gt;&lt;span style=&quot;&quot; class=&quot;hljs-keyword&quot;&gt;update&lt;/span&gt; &lt;/font&gt;largest&lt;span style=&quot;&quot; class=&quot;hljs-operator&quot;&gt;/&lt;/span&gt;smallest word&lt;/font&gt;" style="rounded=0;whiteSpace=wrap;html=1;" vertex="1" parent="1">
          <mxGeometry x="320" y="360" width="200" height="80" as="geometry" />
        </mxCell>
        <mxCell id="pzUCy6e7cFwTvhzZ8XjX-20" style="edgeStyle=orthogonalEdgeStyle;rounded=0;orthogonalLoop=1;jettySize=auto;html=1;entryX=0.5;entryY=0;entryDx=0;entryDy=0;" edge="1" parent="1" source="pzUCy6e7cFwTvhzZ8XjX-17">
          <mxGeometry relative="1" as="geometry">
            <mxPoint x="420" y="600" as="targetPoint" />
          </mxGeometry>
        </mxCell>
        <mxCell id="pzUCy6e7cFwTvhzZ8XjX-17" value="&lt;font style=&quot;font-size: 10px;&quot; face=&quot;Verdana&quot;&gt;Count vowels &lt;font color=&quot;#3399ff&quot;&gt;&lt;span style=&quot;&quot; class=&quot;hljs-keyword&quot;&gt;in&lt;/span&gt; &lt;/font&gt;largest &lt;span style=&quot;&quot; class=&quot;hljs-keyword&quot;&gt;&lt;font color=&quot;#3399ff&quot;&gt;and&lt;/font&gt;&lt;/span&gt;&lt;/font&gt;&lt;div&gt;&lt;font style=&quot;font-size: 10px;&quot; face=&quot;Verdana&quot;&gt;&amp;nbsp;smallest words&lt;/font&gt;&lt;/div&gt;" style="rounded=0;whiteSpace=wrap;html=1;" vertex="1" parent="1">
          <mxGeometry x="320" y="480" width="200" height="80" as="geometry" />
        </mxCell>
        <mxCell id="pzUCy6e7cFwTvhzZ8XjX-23" style="edgeStyle=orthogonalEdgeStyle;rounded=0;orthogonalLoop=1;jettySize=auto;html=1;entryX=0.5;entryY=0;entryDx=0;entryDy=0;" edge="1" parent="1" source="pzUCy6e7cFwTvhzZ8XjX-21" target="pzUCy6e7cFwTvhzZ8XjX-22">
          <mxGeometry relative="1" as="geometry" />
        </mxCell>
        <mxCell id="pzUCy6e7cFwTvhzZ8XjX-21" value="&lt;font style=&quot;font-size: 10px;&quot; face=&quot;Verdana&quot;&gt;Output largest &lt;font color=&quot;#3399ff&quot;&gt;&lt;span style=&quot;&quot; class=&quot;hljs-keyword&quot;&gt;and&lt;/span&gt; &lt;/font&gt;smallest&amp;nbsp;&lt;br&gt;words, &lt;font color=&quot;#3399ff&quot;&gt;&lt;span style=&quot;&quot; class=&quot;hljs-keyword&quot;&gt;and&lt;/span&gt; &lt;/font&gt;vowel counts&amp;nbsp;&amp;nbsp;&lt;/font&gt;" style="shape=parallelogram;perimeter=parallelogramPerimeter;whiteSpace=wrap;html=1;fixedSize=1;" vertex="1" parent="1">
          <mxGeometry x="320" y="600" width="200" height="80" as="geometry" />
        </mxCell>
        <mxCell id="pzUCy6e7cFwTvhzZ8XjX-22" value="&lt;font style=&quot;font-size: 10px;&quot; face=&quot;Verdana&quot;&gt;END&lt;/font&gt;" style="rounded=1;whiteSpace=wrap;html=1;" vertex="1" parent="1">
          <mxGeometry x="360" y="720" width="120" height="60" as="geometry" />
        </mxCell>
      </root>
    </mxGraphModel>
  </diagram>
</mxfile>
